<?xml version="1.0" encoding="UTF-8" standalone="no"?>
<svg width="13px" height="12px" viewBox="0 0 13 12" version="1.1" xmlns="http://www.w3.org/2000/svg" xmlns:xlink="http://www.w3.org/1999/xlink">
    <defs></defs>
    <g id="Page-1" stroke="none" stroke-width="1" fill="none" fill-rule="evenodd">
        <g id="全部课程" transform="translate(-201.000000, -405.000000)" fill="#999999">
            <g id="4" transform="translate(15.000000, 374.000000)">
                <g id="Group-Copy-2" transform="translate(57.000000, 31.000000)">
                    <path d="M141.59375,0 L129.40625,0 C129.182,0 129,0.18537931 129,0.413793103 L129,9.10344828 C129,9.33186207 129.182,9.51724138 129.40625,9.51724138 L132.25,9.51724138 L132.25,11.5862069 C132.25,11.7477931 132.342422,11.8946897 132.486437,11.9621379 C132.540875,11.9875862 132.598766,12 132.65625,12 C132.751516,12 132.845562,11.9658621 132.920719,11.9004828 L135.650313,9.51724138 L141.59375,9.51724138 C141.818,9.51724138 142,9.33186207 142,9.10344828 L142,0.413793103 C142,0.18537931 141.818,0 141.59375,0 L141.59375,0 Z" id="Shape-Copy"></path>
                </g>
            </g>
        </g>
    </g>
</svg>