<?xml version="1.0" encoding="UTF-8" standalone="no"?>
<svg width="20px" height="10px" viewBox="0 0 20 10" version="1.1" xmlns="http://www.w3.org/2000/svg" xmlns:xlink="http://www.w3.org/1999/xlink">
    <defs></defs>
    <g id="Page-1" stroke="none" stroke-width="1" fill="none" fill-rule="evenodd">
        <g id="首页上滑" transform="translate(-41.000000, -187.000000)" fill="#FFFFFF">
            <g id="page1-copy" transform="translate(16.000000, -48.000000)">
                <g id="eye-copy" transform="translate(25.000000, 235.000000)">
                    <g id="Group">
                        <path d="M10,0 C3.4903125,0 0.2403125,4.48294118 0.105,4.67382353 C-0.035,4.87147059 -0.035,5.12882353 0.105,5.32647059 C0.2403125,5.51705882 3.4903125,10 10,10 C16.5096875,10 19.7596875,5.51705882 19.895,5.32617647 C20.035,5.12852941 20.035,4.87117647 19.895,4.67352941 C19.7596875,4.48294118 16.5096875,0 10,0 Z M10,2.35294118 C8.4490625,2.35294118 7.1875,3.54058824 7.1875,5 C7.1875,6.45941176 8.4490625,7.64705882 10,7.64705882 C11.5509375,7.64705882 12.8125,6.45941176 12.8125,5 C12.8125,3.54058824 11.5509375,2.35294118 10,2.35294118 Z" id="Shape"></path>
                    </g>
                </g>
            </g>
        </g>
    </g>
</svg>