<?xml version="1.0" encoding="UTF-8" standalone="no"?>
<svg width="15px" height="14px" viewBox="0 0 15 14" version="1.1" xmlns="http://www.w3.org/2000/svg" xmlns:xlink="http://www.w3.org/1999/xlink">
    <defs></defs>
    <g id="Page-1" stroke="none" stroke-width="1" fill="none" fill-rule="evenodd">
        <g id="课程详情" transform="translate(-229.000000, -236.000000)" stroke="#FFFFFF">
            <g id="Group" transform="translate(0.000000, 80.272000)">
                <g id="写评价-+-Shape-Copy-4" transform="translate(230.000000, 154.000000)">
                    <path d="M12.59375,3 L0.40625,3 C0.182,3 0,3.18537931 0,3.4137931 L0,12.1034483 C0,12.3318621 0.182,12.5172414 0.40625,12.5172414 L3.25,12.5172414 L3.25,14.5862069 C3.25,14.7477931 3.34242187,14.8946897 3.4864375,14.9621379 C3.540875,14.9875862 3.59876562,15 3.65625,15 C3.75151563,15 3.8455625,14.9658621 3.92071875,14.9004828 L6.6503125,12.5172414 L12.59375,12.5172414 C12.818,12.5172414 13,12.3318621 13,12.1034483 L13,3.4137931 C13,3.18537931 12.818,3 12.59375,3 L12.59375,3 Z" id="Shape-Copy-4"></path>
                </g>
            </g>
        </g>
    </g>
</svg>