<?xml version="1.0" encoding="UTF-8" standalone="no"?>
<svg width="14px" height="14px" viewBox="0 0 14 14" version="1.1" xmlns="http://www.w3.org/2000/svg" xmlns:xlink="http://www.w3.org/1999/xlink">
    <defs></defs>
    <g id="Page-1" stroke="none" stroke-width="1" fill="none" fill-rule="evenodd">
        <g id="课程详情底部-（---！！！" transform="translate(-32.000000, -205.000000)">
            <g id="pricetag" transform="translate(32.000000, 205.000000)">
                <g id="Group">
                    <path d="M5.29544615,13.6584 C5.37944615,13.7426154 5.48972308,13.7846154 5.6,13.7846154 C5.71027692,13.7846154 5.82055385,13.7426154 5.90455385,13.6584 L13.6584,5.90455385 C13.7391692,5.82378462 13.7846154,5.71415385 13.7846154,5.6 L13.7846154,0.430769231 C13.7846154,0.192984615 13.5916308,0 13.3538462,0 L8.18461538,0 C8.07046154,0 7.96083077,0.0454461538 7.88006154,0.126215385 L0.126215385,7.88006154 C-0.042,8.04827692 -0.042,8.32095385 0.126215385,8.48916923 L5.29544615,13.6584 L5.29544615,13.6584 Z" id="Shape" fill="#999999"></path>
                    <path d="M10.1230769,5.38461538 C11.0731385,5.38461538 11.8461538,4.6116 11.8461538,3.66153846 C11.8461538,2.71147692 11.0731385,1.93846154 10.1230769,1.93846154 C9.17301538,1.93846154 8.4,2.71147692 8.4,3.66153846 C8.4,4.6116 9.17301538,5.38461538 10.1230769,5.38461538 L10.1230769,5.38461538 Z" id="Shape" fill="#FFFFFF"></path>
                </g>
            </g>
        </g>
    </g>
</svg>